<?xml version = '1.0' encoding = 'UTF-8'?>
<svg id="svg" xmlns="http://www.w3.org/2000/svg" role="img" aria-labelledby="title desc" xmlns:xlink="http://www.w3.org/1999/xlink" width="400" height="450" viewBox="0 0 400 450">

<title id="title">Organization Chart</title><desc id="desc">Organization Chart Preview in SVG Format</desc><style type="text/css">
	
		.text_trunc {
			width: 120;
			overflow: hidden;
			white-space: nowrap;
			text-overflow: ellipsis;
		}
               .initial{
                   font-size:30px;
                   fill: green;
               }
	
</style><g fill="none">
<rect rx="5" ry="5" stroke="black" stroke-width="2" x="50" y="50" width="300" height="100"/>
<g fill="black" stroke-width="0" font-size="13">
<path id="50_50_0" fill="none" d="M60,88 L350,88 L350 Z"/><text class="text_trunc">
<textPath href="#50_50_0"> Simon Roberts </textPath>
  </text>
<path id="50_50_1" fill="none" d="M60,103 L350,103 L350 Z"/><text class="text_trunc">
<textPath href="#50_50_1"> Director </textPath>
  </text>
<path id="50_50_2" fill="none" d="M60,118 L350,118 L350 Z"/><text class="text_trunc">
<textPath href="#50_50_2"> 12,149863 </textPath>
  </text>
</g>
</g>
<g fill="none">
<rect rx="5" ry="5" stroke="black" stroke-width="2" x="50" y="200" width="300" height="200"/>
<g fill="black" stroke-width="0" font-size="13">
<path id="50_200_0" fill="none" d="M60,220 L350,220 L350 Z"/><text class="text_trunc">
<textPath href="#50_200_0"> Angie Risley </textPath>
  </text>
<path id="50_200_1" fill="none" d="M60,235 L350,235 L350 Z"/><text class="text_trunc">
<textPath href="#50_200_1"> Blathnaid Bergin </textPath>
  </text>
<path id="50_200_2" fill="none" d="M60,250 L350,250 L350 Z"/><text class="text_trunc">
<textPath href="#50_200_2"> Clodagh Moriarty </textPath>
  </text>
<path id="50_200_3" fill="none" d="M60,265 L350,265 L350 Z"/><text class="text_trunc">
<textPath href="#50_200_3"> Emma Abrahams </textPath>
  </text>
<path id="50_200_4" fill="none" d="M60,280 L350,280 L350 Z"/><text class="text_trunc">
<textPath href="#50_200_4"> Graham Biggart </textPath>
  </text>
<path id="50_200_5" fill="none" d="M60,295 L350,295 L350 Z"/><text class="text_trunc">
<textPath href="#50_200_5"> Jim Brown </textPath>
  </text>
<path id="50_200_6" fill="none" d="M60,310 L350,310 L350 Z"/><text class="text_trunc">
<textPath href="#50_200_6"> Mark Given </textPath>
  </text>
<path id="50_200_7" fill="none" d="M60,325 L350,325 L350 Z"/><text class="text_trunc">
<textPath href="#50_200_7"> Patrick Dunne </textPath>
  </text>
<path id="50_200_8" fill="none" d="M60,340 L350,340 L350 Z"/><text class="text_trunc">
<textPath href="#50_200_8"> Paula Nickolds </textPath>
  </text>
<path id="50_200_9" fill="none" d="M60,355 L350,355 L350 Z"/><text class="text_trunc">
<textPath href="#50_200_9"> Prerana Issar </textPath>
  </text>
<path id="50_200_10" fill="none" d="M60,370 L350,370 L350 Z"/><text class="text_trunc">
<textPath href="#50_200_10"> Rhian Bartlett </textPath>
  </text>
<path id="50_200_11" fill="none" d="M60,385 L350,385 L350 Z"/><text class="text_trunc">
<textPath href="#50_200_11"> Tim Fallowfield </textPath>
  </text>
</g>
</g>
<path d="M 200 175 L 200 175 L 200 200 L 200 175 z" fill="black" stroke="black"/>
  <path d="M 200 200 L 205 195 L 195 195 z" fill="black" stroke="black"/>
<line x1="200" y1="150" x2="200" y2="175" stroke="black"/></svg>